<svg width="139" height="20" viewBox="0 0 139 20" fill="none" xmlns="http://www.w3.org/2000/svg">
<g clip-path="url(#clip0_1_2297)">
<path d="M21.448 6.43241V-0.415039H7.74139V5.82822C7.74139 5.98846 7.67768 6.14214 7.56428 6.25545C7.45087 6.36875 7.29706 6.43241 7.13668 6.43241H0.863892V13.2799H7.12055C7.28093 13.2799 7.43474 13.3435 7.54815 13.4568C7.66155 13.5701 7.72526 13.7238 7.72526 13.884V20.1354H17.5819V13.2879H8.30981C8.14943 13.2879 7.99562 13.2243 7.88222 13.111C7.76881 12.9976 7.70511 12.844 7.70511 12.6837V7.04466C7.70511 6.88442 7.76881 6.73073 7.88222 6.61743C7.99562 6.50412 8.14943 6.44047 8.30981 6.44047L21.448 6.43241Z" fill="#4B10C9"/>
<path d="M76.7276 7.04057V2.9646H79.6709V16.5347H76.7354V14.9467C76.5367 15.119 76.4259 15.2138 76.3167 15.3099C74.1396 17.2258 69.9553 17.3257 67.821 15.5005C66.8422 14.6634 66.3844 13.6258 66.1819 12.501C65.8916 10.8885 65.9852 9.30586 66.8298 7.80329C67.7106 6.23632 69.2717 5.44335 71.3523 5.32101C73.4544 5.19739 75.2554 5.71727 76.7276 7.04057ZM76.8156 10.8989C76.8564 9.44379 75.9967 8.01862 73.5151 7.81392C72.0393 7.69219 70.6045 7.8727 69.7893 9.00615C68.8352 10.3326 68.8512 11.7525 69.7974 13.0955C70.8867 14.6418 74.0117 14.5312 75.3047 13.8044C76.4931 13.1364 76.8093 12.1566 76.8156 10.8989Z" fill="#15181E"/>
<path d="M82.601 16.5339V2.96869H85.5639V7.1567C85.7671 6.97582 85.8751 6.87776 85.9857 6.7816C87.8477 5.1617 91.2739 4.80245 93.5779 5.99392C94.7665 6.60863 95.4732 7.52545 95.8408 8.60023C96.4632 10.3329 96.4068 12.1812 95.6793 13.8864C94.937 15.6261 93.0821 16.705 90.8235 16.7809C88.7634 16.8501 87.0139 16.3603 85.6045 14.9674V16.5339L82.601 16.5339ZM93.204 11.0658L93.1689 11.061C93.155 10.8437 93.1566 10.6249 93.1245 10.4094C92.9527 9.25427 92.3191 8.35149 90.8936 7.98715C90.2921 7.84102 89.6653 7.77708 89.0383 7.79793C87.2231 7.84653 86.0334 8.58776 85.652 9.9484C85.5031 10.5236 85.4713 11.1149 85.558 11.6985C85.7725 13.2828 86.9031 14.1382 88.8529 14.2904C90.9806 14.4564 92.4613 13.7338 92.9886 12.2372C93.1211 11.8609 93.1354 11.457 93.204 11.0658Z" fill="#15181E"/>
<path d="M138.238 12.182H128.403C128.539 13.2074 129.477 14.0073 130.796 14.272C132.334 14.5805 133.86 14.4299 135.379 14.1938C136.053 14.0891 136.711 13.9137 137.436 13.7575C137.436 14.4429 137.441 15.127 137.428 15.8109C137.417 15.8519 137.396 15.8904 137.364 15.9233C137.332 15.9562 137.292 15.9826 137.246 16.0004C134.464 16.8775 131.634 17.1553 128.782 16.2774C127.187 15.7864 126.179 14.7907 125.696 13.4582C125.098 11.8537 125.125 10.137 125.773 8.54559C126.417 6.9396 127.784 5.90475 129.798 5.49884C131.362 5.16401 133.014 5.22162 134.537 5.66415C135.799 6.02528 136.837 6.77499 137.431 7.75313C138.305 9.14029 138.363 10.62 138.238 12.182ZM135.146 10.1483C135.218 9.31848 134.618 8.42651 133.749 8.06826C132.869 7.70576 131.924 7.68954 130.984 7.79559C129.367 7.97801 128.395 8.85618 128.328 10.1483H135.146Z" fill="#15181E"/>
<path d="M109.974 16.5492H107.038V14.9405C106.833 15.1178 106.722 15.2105 106.615 15.3063C104.678 17.0431 101.25 17.098 99.5278 16.2997C99.0937 16.1027 98.7193 15.8286 98.4324 15.4975C98.1455 15.1664 97.9535 14.7869 97.8704 14.387C97.4354 12.6066 98.4824 11.0542 100.558 10.3681C102.393 9.7616 104.326 9.72545 106.264 9.71164C106.511 9.70988 106.759 9.7114 106.999 9.7114C107.204 8.78337 106.61 8.10291 105.422 7.88496C104.123 7.65956 102.777 7.69442 101.499 7.98656C100.565 8.18645 99.6635 8.48546 98.6874 8.757C98.6874 8.02379 98.6769 7.27649 98.7014 6.52995C98.7043 6.44273 98.8839 6.33566 99.0095 6.27856C100.024 5.81736 101.131 5.5804 102.268 5.4296C103.599 5.25297 104.94 5.20483 106.249 5.50268C108.75 6.07208 109.943 7.30186 110 9.47377C110.062 11.7781 110.015 14.0843 110.014 16.3897C110.006 16.4436 109.992 16.4969 109.974 16.5492ZM107.039 11.7939C105.625 11.7328 104.208 11.8241 102.823 12.0653C102.352 12.1578 101.898 12.3 101.471 12.4882C100.947 12.7151 100.759 13.1215 100.833 13.5953C100.855 13.8091 100.964 14.0107 101.143 14.168C101.322 14.3254 101.559 14.4295 101.819 14.4637C103.496 14.7647 105.007 14.4933 106.253 13.5004C106.534 13.2833 106.751 13.0168 106.887 12.7211C107.023 12.4255 107.075 12.1084 107.039 11.7939Z" fill="#15181E"/>
<path d="M51.0666 9.7149C51.222 8.76686 50.6296 8.10248 49.4535 7.88752C48.1548 7.66097 46.8081 7.69674 45.5302 7.99172C44.6708 8.17904 43.8497 8.48231 43.0111 8.73294C42.9266 8.75818 42.8398 8.77826 42.7123 8.81168C42.7123 8.05278 42.6981 7.32455 42.7275 6.59747C42.7319 6.48644 42.9122 6.34343 43.0547 6.27866C44.0546 5.82418 45.1458 5.58488 46.2674 5.43817C47.693 5.25169 49.114 5.22669 50.5217 5.55906C52.6335 6.05771 53.9593 7.34386 54.0058 9.1412C54.0687 11.574 54.0251 14.0086 54.0257 16.4425C54.017 16.4767 54.0032 16.5099 53.9847 16.5414H51.0339V15.1204C50.3462 15.519 49.7234 15.9808 48.9991 16.2791C47.4597 16.9131 45.8176 16.9728 44.1849 16.5313C42.4495 16.062 41.5869 14.705 41.8868 13.0649C42.173 11.4991 43.4205 10.6621 45.1521 10.2021C46.8351 9.75503 48.5822 9.71628 50.3318 9.71493C50.5674 9.71474 50.803 9.7149 51.0666 9.7149ZM51.1107 11.7924C49.6373 11.7605 48.2294 11.8068 46.8484 12.0706C46.3779 12.1634 45.9242 12.306 45.4989 12.4947C44.9524 12.7347 44.803 13.1638 44.8876 13.6465C44.9688 14.11 45.3369 14.3731 45.8685 14.4692C47.5272 14.769 49.0164 14.4895 50.2625 13.5276C50.8458 13.0773 51.0953 12.4928 51.1107 11.7924V11.7924Z" fill="#15181E"/>
<path d="M123.087 8.54606C122.34 8.35508 121.646 8.15859 120.94 8.00125C119.557 7.69063 118.115 7.59505 116.689 7.71947C116.378 7.75328 116.074 7.81945 115.784 7.91636C115.393 8.03825 115.114 8.25828 115.114 8.62958C115.106 8.79303 115.172 8.9531 115.298 9.08015C115.424 9.20719 115.602 9.29259 115.8 9.32054C116.544 9.46971 117.305 9.56699 118.054 9.69988C119.216 9.90576 120.42 10.0243 121.525 10.3582C123.377 10.9182 123.92 12.2793 123.697 13.7329C123.392 15.714 121.514 16.5883 119.212 16.75C117.167 16.9024 115.108 16.6597 113.2 16.0417C112.871 15.9352 112.742 15.8036 112.755 15.5118C112.782 14.8737 112.763 14.2344 112.763 13.5929C113.553 13.796 114.297 14.0303 115.067 14.1764C116.53 14.4542 118.013 14.5628 119.504 14.306C120.301 14.169 120.737 13.8566 120.758 13.4249C120.779 12.9735 120.373 12.623 119.531 12.4878C118.346 12.2974 117.146 12.169 115.957 11.9945C115.478 11.9253 115.007 11.8269 114.546 11.7C111.285 10.792 111.676 7.59405 113.405 6.40538C114.341 5.7671 115.505 5.39268 116.723 5.33779C118.753 5.19967 120.793 5.4668 122.669 6.11615C122.994 6.22965 123.107 6.37975 123.095 6.66485C123.068 7.28737 123.087 7.91113 123.087 8.54606Z" fill="#15181E"/>
<path d="M40.0971 8.46031C39.2198 8.26241 38.4189 8.01615 37.591 7.91323C36.7407 7.79318 35.8745 7.76697 35.0157 7.83528C32.6705 8.06738 31.9787 9.28754 31.8834 10.7561C31.8535 11.2925 31.9231 11.8296 32.0899 12.349C32.4411 13.4552 33.404 14.0705 34.7638 14.2436C36.5005 14.4647 38.1759 14.238 39.7875 13.6785C39.8576 13.6542 39.9277 13.6297 40.0407 13.5904C40.0668 13.6768 40.0848 13.7648 40.0946 13.8535C40.0987 14.4681 40.1149 15.0833 40.0834 15.6968C40.0755 15.7775 40.0454 15.8557 39.9951 15.9255C39.9449 15.9953 39.8759 16.0549 39.7933 16.0997C37.3046 16.9497 34.7615 17.1038 32.2283 16.2855C30.5674 15.7489 29.5903 14.6491 29.1395 13.2715C28.6062 11.6418 28.6073 9.99771 29.3186 8.39822C30.0403 6.77536 31.497 5.7948 33.5679 5.46246C35.6014 5.13298 37.7083 5.29581 39.63 5.93095C40.0047 6.05151 40.1193 6.21353 40.1055 6.52726C40.0774 7.1651 40.0971 7.80433 40.0971 8.46031Z" fill="#15181E"/>
<path d="M59.794 16.5505C59.5915 16.5585 59.4524 16.5685 59.3133 16.5688C58.4969 16.5703 57.6806 16.5695 56.8313 16.5695V5.5504H59.7023V7.53838L59.7848 7.55894C59.9264 7.36965 60.0636 7.17808 60.2102 6.99144C61.3756 5.5085 62.9916 4.99982 65.0816 5.44662C65.4057 5.5159 65.5846 5.61614 65.5683 5.93439C65.5336 6.6109 65.5577 7.28941 65.5577 7.98431C65.0534 7.92626 64.5808 7.86332 64.1057 7.81866C62.0328 7.62382 60.4216 8.55567 59.995 10.223C59.8748 10.6983 59.8105 11.1819 59.8032 11.6672C59.7788 13.1397 59.7941 14.6126 59.794 16.0853C59.794 16.2242 59.794 16.3631 59.794 16.5505Z" fill="#15181E"/>
</g>
<defs>
<clipPath id="clip0_1_2297">
<rect width="137.272" height="19.9999" fill="white" transform="translate(0.86377 6.10352e-05)"/>
</clipPath>
</defs>
</svg>
